/* XPM */
static char * close_active_xpm[] = {
"64 32 4 1",
" 	c None",
".	c #FF0000",
"+	c #40C000",
"@	c #FFFFFF",
"................................................................",
".++++++++++++++++++++++++++++++++++++++++++++++++++++++++++++++.",
".++++++++++++++++++++++++++++++++++++++++++++++++++++++++++++++.",
".++++++++++++++++++++++++++++++++++++++++++++++++++++++++++++++.",
".+++++++++++++++++++++++@@++++++++++++@@+++++++++++++++++++++++.",
".+++++++++++++++++++++++@@@++++++++++@@@+++++++++++++++++++++++.",
".++++++++++++++++++++++++@@@++++++++@@@++++++++++++++++++++++++.",
".+++++++++++++++++++++++++@@@++++++@@@+++++++++++++++++++++++++.",
".++++++++++++++++++++++++++@@@++++@@@++++++++++++++++++++++++++.",
".+++++++++++++++++++++++++++@@@++@@@+++++++++++++++++++++++++++.",
".++++++++++++++++++++++++++++@@@@@@++++++++++++++++++++++++++++.",
".+++++++++++++++++++++++++++++@@@@+++++++++++++++++++++++++++++.",
".+++++++++++++++++++++++++++++@@@@+++++++++++++++++++++++++++++.",
".++++++++++++++++++++++++++++@@@@@@++++++++++++++++++++++++++++.",
".+++++++++++++++++++++++++++@@@++@@@+++++++++++++++++++++++++++.",
".++++++++++++++++++++++++++@@@++++@@@++++++++++++++++++++++++++.",
".+++++++++++++++++++++++++@@@++++++@@@+++++++++++++++++++++++++.",
".++++++++++++++++++++++++@@@++++++++@@@++++++++++++++++++++++++.",
".+++++++++++++++++++++++@@@++++++++++@@@+++++++++++++++++++++++.",
".+++++++++++++++++++++++@@++++++++++++@@+++++++++++++++++++++++.",
".++++++++++++++++++++++++++++++++++++++++++++++++++++++++++++++.",
".++++++++++++++++++++++++++++++++++++++++++++++++++++++++++++++.",
".++++++++++++++++++++++++++++++++++++++++++++++++++++++++++++++.",
"................................................................",
"                                                                ",
"                                                                ",
"                                                                ",
"                                                                ",
"                                                                ",
"                                                                ",
"                                                                ",
"                                                                "};
